<svg width="16" height="15" viewBox="0 0 16 15" fill="none" xmlns="http://www.w3.org/2000/svg">
<path d="M12 6H12.5V5.5V4.5C12.5 4.36739 12.5527 4.24022 12.6464 4.14645C12.7402 4.05268 12.8674 4 13 4C13.1326 4 13.2598 4.05268 13.3536 4.14645C13.4473 4.24022 13.5 4.36739 13.5 4.5V5.5V6H14H15C15.1326 6 15.2598 6.05268 15.3536 6.14645C15.4473 6.24021 15.5 6.36739 15.5 6.5C15.5 6.63261 15.4473 6.75979 15.3536 6.85355C15.2598 6.94732 15.1326 7 15 7H14H13.5V7.5V8.5C13.5 8.63261 13.4473 8.75978 13.3536 8.85355C13.2598 8.94732 13.1326 9 13 9C12.8674 9 12.7402 8.94732 12.6464 8.85355C12.5527 8.75978 12.5 8.63261 12.5 8.5V7.5V7H12H11C10.8674 7 10.7402 6.94732 10.6464 6.85355C10.5527 6.75978 10.5 6.63261 10.5 6.5C10.5 6.36739 10.5527 6.24022 10.6464 6.14645C10.7402 6.05268 10.8674 6 11 6H12ZM7.76777 5.26777C7.29893 5.73661 6.66304 6 6 6C5.33696 6 4.70107 5.73661 4.23223 5.26777C3.76339 4.79893 3.5 4.16304 3.5 3.5C3.5 2.83696 3.76339 2.20107 4.23223 1.73223C4.70107 1.26339 5.33696 1 6 1C6.66304 1 7.29893 1.26339 7.76777 1.73223C8.23661 2.20107 8.5 2.83696 8.5 3.5C8.5 4.16304 8.23661 4.79893 7.76777 5.26777ZM6 9C7.45869 9 8.85764 9.57946 9.88909 10.6109C10.802 11.5238 11.3609 12.7247 11.4772 14H0.522759C0.639134 12.7247 1.19798 11.5238 2.11091 10.6109C3.14236 9.57946 4.54131 9 6 9Z" fill="white" stroke="white"/>
</svg>
