<svg width="20" height="14" viewBox="0 0 20 14" fill="none" xmlns="http://www.w3.org/2000/svg">
<path d="M8.03979 2.04304C8.43031 1.65252 8.43031 1.01935 8.03979 0.628831C7.64927 0.238306 7.0161 0.238306 6.62558 0.628831L0.958909 6.2955C0.763479 6.49093 0.665848 6.74712 0.666016 7.00326C0.666016 7.00348 0.666016 7.00305 0.666016 7.00326C0.666016 7.29489 0.790849 7.558 0.989995 7.7408L6.62558 13.3764C7.0161 13.7669 7.64927 13.7669 8.03979 13.3764C8.43031 12.9859 8.43031 12.3527 8.03979 11.9622L4.08153 8.00391H18.3327C18.885 8.00391 19.3327 7.55619 19.3327 7.00391C19.3327 6.45162 18.885 6.00391 18.3327 6.00391H4.07893L8.03979 2.04304Z" fill="#1F2937"/>
</svg>
