<svg width="16" height="12" viewBox="0 0 16 12" fill="none" xmlns="http://www.w3.org/2000/svg">
<path fill-rule="evenodd" clip-rule="evenodd" d="M8.27601 2.38471C9.40878 1.86901 10.3928 1.62381 11.3194 1.62096C12.1283 1.61847 12.9277 1.80053 13.7776 2.19277V9.19204C12.9648 8.88508 12.1531 8.7295 11.3153 8.73207C10.1482 8.73567 8.97479 9.04602 7.72356 9.61566C6.60538 10.1247 5.62444 10.3354 4.69263 10.3208C3.882 10.3082 3.07801 10.1246 2.22201 9.78148V2.75943C3.02851 3.03639 3.83595 3.1965 4.67183 3.20955C5.8338 3.22767 7.01019 2.96098 8.27601 2.38471ZM14.7526 1.18689C13.6084 0.589964 12.4874 0.284021 11.3153 0.287629C10.1482 0.291222 8.97479 0.60158 7.72356 1.17121C6.60538 1.68027 5.62444 1.89091 4.69263 1.87637C3.75884 1.86181 2.83386 1.62047 1.82803 1.16961C1.62176 1.07715 1.38268 1.09551 1.19295 1.21839C1.00322 1.34126 0.888672 1.55191 0.888672 1.77796V10.2224C0.888672 10.4851 1.04294 10.7233 1.28265 10.8308C2.40659 11.3346 3.51183 11.6359 4.67183 11.654C5.8338 11.6721 7.01019 11.4054 8.27601 10.8292C9.40878 10.3135 10.3928 10.0683 11.3194 10.0654C12.241 10.0626 13.1503 10.2993 14.1359 10.8135C14.3425 10.9213 14.5905 10.9133 14.7898 10.7925C14.9892 10.6717 15.1109 10.4555 15.1109 10.2224V1.77796C15.1109 1.52957 14.9728 1.30178 14.7526 1.18689ZM6.88867 6.00017C6.88867 5.38652 7.38613 4.88906 7.99978 4.88906C8.61343 4.88906 9.11089 5.38652 9.11089 6.00017C9.11089 6.61382 8.61343 7.11128 7.99978 7.11128C7.38613 7.11128 6.88867 6.61382 6.88867 6.00017ZM7.99978 3.55572C6.64975 3.55572 5.55534 4.65014 5.55534 6.00017C5.55534 7.3502 6.64975 8.44461 7.99978 8.44461C9.34981 8.44461 10.4442 7.3502 10.4442 6.00017C10.4442 4.65014 9.34981 3.55572 7.99978 3.55572Z" fill="white"/>
</svg>
