<svg width="18" height="15" viewBox="0 0 18 15" fill="none" xmlns="http://www.w3.org/2000/svg">
<path d="M13.1667 4.99935V3.33268C13.1667 2.89065 12.9911 2.46673 12.6785 2.15417C12.366 1.84161 11.942 1.66602 11.5 1.66602H3.16667C2.72464 1.66602 2.30072 1.84161 1.98816 2.15417C1.67559 2.46673 1.5 2.89065 1.5 3.33268V8.33268C1.5 8.77471 1.67559 9.19863 1.98816 9.51119C2.30072 9.82375 2.72464 9.99935 3.16667 9.99935H4.83333M6.5 13.3327H14.8333C15.2754 13.3327 15.6993 13.1571 16.0118 12.8445C16.3244 12.532 16.5 12.108 16.5 11.666V6.66602C16.5 6.22399 16.3244 5.80007 16.0118 5.4875C15.6993 5.17494 15.2754 4.99935 14.8333 4.99935H6.5C6.05797 4.99935 5.63405 5.17494 5.32149 5.4875C5.00893 5.80007 4.83333 6.22399 4.83333 6.66602V11.666C4.83333 12.108 5.00893 12.532 5.32149 12.8445C5.63405 13.1571 6.05797 13.3327 6.5 13.3327ZM12.3333 9.16602C12.3333 9.60804 12.1577 10.032 11.8452 10.3445C11.5326 10.6571 11.1087 10.8327 10.6667 10.8327C10.2246 10.8327 9.80072 10.6571 9.48816 10.3445C9.17559 10.032 9 9.60804 9 9.16602C9 8.72399 9.17559 8.30007 9.48816 7.9875C9.80072 7.67494 10.2246 7.49935 10.6667 7.49935C11.1087 7.49935 11.5326 7.67494 11.8452 7.9875C12.1577 8.30007 12.3333 8.72399 12.3333 9.16602Z" stroke="white" stroke-width="2" stroke-linecap="round" stroke-linejoin="round"/>
</svg>
