<svg width="24" height="24" viewBox="0 0 24 24" fill="none" xmlns="http://www.w3.org/2000/svg">
<path d="M0 12C0 5.37258 5.37258 0 12 0C18.6274 0 24 5.37258 24 12C24 18.6274 18.6274 24 12 24C5.37258 24 0 18.6274 0 12Z" fill="#F6F1ED"/>
<g clip-path="url(#clip0_1566_7690)">
<path d="M12.028 18.5646C12.028 18.9313 11.7301 19.2317 11.365 19.198C10.6431 19.1316 9.93406 18.9567 9.26197 18.6783C8.38503 18.3151 7.58823 17.7827 6.91706 17.1115C6.24588 16.4403 5.71348 15.6435 5.35024 14.7666C4.987 13.8897 4.80005 12.9499 4.80005 12.0006C4.80005 11.0514 4.987 10.1116 5.35024 9.23461C5.71348 8.35768 6.24588 7.56089 6.91706 6.88971C7.58823 6.21854 8.38503 5.68614 9.26197 5.3229C9.93406 5.04451 10.6431 4.86966 11.365 4.80317C11.7301 4.76955 12.028 5.06993 12.028 5.43657V8.54281C10.1183 8.54283 8.57015 10.0909 8.57015 12.0006C8.57015 13.9103 10.1182 15.4584 12.0279 15.4584L12.028 8.54281C13.9376 8.54281 15.4857 10.091 15.4857 12.0007C15.4857 13.9104 13.9375 15.4584 12.0279 15.4584L12.028 18.5646Z" fill="#38318B"/>
<path d="M12.0174 15.4869L12.0173 8.52966C13.9385 8.52966 15.496 10.0871 15.496 12.0082C15.496 13.9294 13.9385 15.4868 12.0174 15.4869Z" fill="#DF6552"/>
</g>
<defs>
<clipPath id="clip0_1566_7690">
<rect width="14.4" height="14.4" fill="white" transform="translate(4.80005 4.79999)"/>
</clipPath>
</defs>
</svg>
