<svg width="20" height="20" viewBox="0 0 20 20" fill="none" xmlns="http://www.w3.org/2000/svg">
<path d="M16.145 5.03587C16.4705 4.71043 16.4705 4.1828 16.145 3.85736C15.8196 3.53192 15.292 3.53192 14.9665 3.85736L10.0002 8.82366L5.03392 3.85736C4.70848 3.53192 4.18084 3.53192 3.85541 3.85736C3.52997 4.1828 3.52997 4.71043 3.85541 5.03587L8.8217 10.0022L3.85541 14.9685C3.52997 15.2939 3.52997 15.8215 3.85541 16.147C4.18084 16.4724 4.70848 16.4724 5.03392 16.147L10.0002 11.1807L14.9665 16.147C15.292 16.4724 15.8196 16.4724 16.145 16.147C16.4705 15.8215 16.4705 15.2939 16.145 14.9685L11.1787 10.0022L16.145 5.03587Z" fill="#1F2937"/>
</svg>
