<svg width="128" height="44" viewBox="0 0 128 44" fill="none" xmlns="http://www.w3.org/2000/svg">
<path fill-rule="evenodd" clip-rule="evenodd" d="M122.726 2.05489C123.965 1.40113 125.246 0.931232 126.684 0.601429C127.108 0.505116 127.178 0.493443 127.178 0.513874C127.178 0.519711 127.082 0.581001 126.969 0.651047C125.848 1.31649 124.338 2.61234 122.909 4.13001C121.291 5.84615 120.019 7.35798 117.455 10.6151C115.046 13.6767 113.597 15.6264 109.674 21.0929C105.844 26.4281 104.575 28.1296 103.088 29.9187C102.762 30.3098 102.5 30.6309 102.506 30.6367C102.518 30.6513 103.175 30.4412 103.46 30.3332C104.994 29.7524 107.124 28.4857 108.641 27.254L108.859 27.076L108.539 27.4408C102.093 34.7461 94.2702 39.5647 85.1265 41.8587C81.8002 42.6934 78.2556 43.2188 74.6936 43.4056C74.3735 43.4202 74.0068 43.4406 73.8787 43.4493C73.1454 43.496 70.7998 43.5223 69.5862 43.4931C67.8372 43.4552 67.1766 43.4289 67.2436 43.4026C67.2756 43.391 67.5055 43.3589 67.7528 43.3326C68.46 43.2567 69.6066 43.0962 70.5611 42.9386C79.7805 41.4209 87.5361 37.9011 94.4652 32.0872C97.579 29.4751 100.638 26.2997 103.973 22.2166C104.229 21.9043 104.447 21.6299 104.462 21.6095C104.479 21.5832 103.821 21.5745 101.214 21.5745H97.9457L96.6362 23.2468C95.9144 24.1633 94.7155 25.6926 93.9734 26.6441L92.6201 28.3719L90.1931 28.3748H87.7689L87.8679 28.2493C88.0396 28.0392 89.3142 26.4164 91.8751 23.1505C93.2284 21.4256 95.3732 18.6909 96.642 17.0711L98.9526 14.132H101.368C103.359 14.132 103.781 14.1379 103.76 14.17C103.749 14.1904 102.812 15.387 101.679 16.8259C100.545 18.2648 99.6191 19.4497 99.6191 19.4585C99.6191 19.4672 101.089 19.4731 102.887 19.4731H106.152L106.49 19.0411L106.516 19.0081C106.739 18.7196 107.512 17.7233 108.277 16.7296C111.105 13.0609 112.089 11.8351 113.716 9.94386C117.208 5.88409 119.848 3.57548 122.726 2.05489ZM27.6071 7.03984C34.2685 3.67178 42.0153 1.31647 47.6727 0.942894C47.8735 0.931217 48.2198 0.916626 48.4439 0.916626L48.8513 0.913708L48.4584 1.05672C48.0306 1.2114 44.1863 2.58898 43.8313 2.71448L43.613 2.79328L44.3114 2.81079C44.6956 2.82247 45.1932 2.85165 45.4173 2.87792C45.9411 2.93921 46.5464 3.04428 46.5173 3.07055C46.5057 3.08222 46.2583 3.18729 45.9702 3.30404C41.7942 4.9939 37.4202 7.2383 33.5875 9.66074C30.7647 11.444 27.8312 13.5746 25.474 15.5534C21.717 18.7055 19.1619 21.6795 17.9512 24.3033C17.4216 25.4562 17.1306 26.4981 16.9967 27.7327C16.9443 28.2201 16.9501 29.2971 17.0112 29.7553C17.2499 31.594 17.9949 32.992 19.2404 33.9318C20.2619 34.7052 21.5249 35.1518 23.0906 35.2948C23.6202 35.3444 24.7755 35.3123 25.3518 35.2335C26.9145 35.0233 28.4598 34.5067 29.7898 33.7508C30.1535 33.5436 30.9858 32.9832 31.2681 32.7556L31.3309 32.7047C31.4282 32.6254 31.4774 32.5853 31.4945 32.5961C31.5119 32.6071 31.4959 32.671 31.4635 32.8002L31.4427 32.884C31.3729 33.1759 31.175 33.7654 31.0382 34.0894C30.9684 34.2587 30.9131 34.4017 30.9189 34.4075C30.9247 34.4134 31.079 34.3725 31.2623 34.317C33.3809 33.672 36.5704 32.1135 38.3456 30.8585C38.5028 30.7447 38.6395 30.6571 38.6424 30.663C38.6483 30.6688 38.6192 30.7885 38.5784 30.9315C38.4446 31.3984 38.0633 32.1135 37.7432 32.4958C37.5977 32.6709 37.6414 32.6739 37.9353 32.5221C38.203 32.382 38.4969 32.1777 38.7065 31.9792L38.8636 31.8333L38.6657 32.1544C37.912 33.3831 37.0622 34.5301 36.0058 35.7442C35.5984 36.2112 34.1608 37.6501 33.6894 38.0645C32.0509 39.4917 30.2496 40.7234 28.5529 41.5697C27.0309 42.3286 24.8076 42.9707 22.6599 43.2713C19.0629 43.7733 15.8268 43.3676 13.1611 42.0747C12.5849 41.7945 12.2852 41.6252 11.7322 41.2604C8.60089 39.194 6.75585 35.823 6.46193 31.629C6.395 30.66 6.45902 29.1686 6.61326 28.0829C7.39318 22.5989 10.7195 17.8036 17.2906 12.6873C18.8301 11.4907 21.8014 9.34845 21.8014 9.43893C21.8014 9.45644 21.7344 9.75705 21.6559 10.1073C21.5744 10.4575 21.5104 10.7581 21.5104 10.7786C21.5104 10.7961 21.5424 10.7844 21.5802 10.7552C23.2826 9.42725 25.0928 8.31235 27.6071 7.03984ZM34.6203 14.6516C34.3963 14.9347 33.4679 16.1196 32.557 17.2841C28.8466 22.021 24.0361 28.1384 23.9022 28.2931C23.8615 28.3427 24.2514 28.3456 32.0536 28.3456H40.2457L40.9965 27.3883L41.5396 26.6982C42.2278 25.8238 43.3662 24.3774 44.4683 22.9754C45.9641 21.0725 48.074 18.3874 49.1508 17.0069C49.5822 16.4553 49.9927 15.9307 50.3351 15.4931L50.337 15.4906L50.3408 15.4858L50.347 15.4779C50.8552 14.8284 51.2109 14.3739 51.2577 14.313L51.4032 14.132H43.214H35.0278L34.6203 14.6516ZM44.8204 16.3327C44.8204 16.3502 42.6698 19.0966 39.8877 22.6339L37.6469 25.4854H34.306C31.8208 25.4854 30.971 25.4766 30.9856 25.4533C30.9972 25.4329 32.1525 23.959 33.5552 22.1757C34.9579 20.3924 36.5643 18.3465 37.1231 17.6285L38.1416 16.3239L41.4825 16.321C43.3188 16.321 44.8204 16.3268 44.8204 16.3327ZM49.4595 18.3348C50.3704 17.1703 51.4879 15.749 51.9419 15.174L52.7683 14.132H55.1838C57.0084 14.132 57.5934 14.1408 57.5788 14.1671C57.5672 14.1846 57.186 14.672 56.732 15.247C56.2809 15.8248 55.9084 16.3122 55.9084 16.3298C55.9084 16.394 56.9532 18.904 56.9823 18.9127C56.9997 18.9185 58.1754 18.3377 59.5985 17.6198L62.1827 16.3181L63.0383 15.2265L63.8968 14.132H66.3239C68.2591 14.132 68.7422 14.1408 68.7218 14.1671C68.7144 14.1758 68.6396 14.2705 68.5202 14.4217L68.5201 14.4218C68.3589 14.626 68.1163 14.9332 67.8488 15.2703C67.3861 15.8569 66.4781 17.0127 65.832 17.8387C65.186 18.6646 64.2227 19.8934 63.6931 20.5676C63.3183 21.042 62.514 22.0672 61.6575 23.159L61.6484 23.1705C61.2907 23.6264 60.9242 24.0936 60.5763 24.5368L59.7259 25.6205C58.8821 26.6958 58.1796 27.591 58.0037 27.8115L57.5847 28.3456H55.1576H52.7305L52.8295 28.2201C53.0885 27.9049 55.3991 24.9688 56.665 23.3461C57.4421 22.3567 58.5072 20.9966 59.031 20.3253C59.5577 19.657 60.0146 19.0703 60.0496 19.0236C60.099 18.9536 59.6334 19.1783 57.5235 20.2436C56.1034 20.9616 54.9277 21.5365 54.916 21.5249C54.9044 21.5132 54.6629 20.9441 54.3806 20.2611C54.0983 19.5781 53.8567 19.0032 53.8451 18.9828C53.8306 18.9565 53.6123 19.2133 53.199 19.7416C52.956 20.0488 52.3475 20.8246 51.6643 21.6958L50.7749 22.8295C49.7854 24.0903 48.406 25.8473 47.7105 26.7316L46.4446 28.3456H44.0291C42.1055 28.3456 41.6195 28.3369 41.637 28.3077C41.6416 28.3022 41.7027 28.2238 41.8066 28.0909L41.8091 28.0876L41.8105 28.0859L41.8113 28.0849C42.0399 27.7922 42.4692 27.2425 42.9553 26.6236C44.521 24.6302 47.2099 21.2038 49.4595 18.3348ZM69.0849 15.4075C68.5291 16.1109 67.397 17.5526 66.5676 18.6121C65.7382 19.6715 64.6731 21.0316 64.1988 21.6328L64.0047 21.8799L63.9906 21.898C63.0047 23.1536 60.0004 26.98 59.0711 28.1617L58.9285 28.3456H66.975H75.0216L76.1391 26.9213L77.2566 25.5L71.6488 25.4854L66.0409 25.4708L67.5716 23.5095L69.1053 21.5453H72.5393H75.9733L76.7794 20.515L77.5884 19.4877L74.169 19.4731L70.7495 19.4585L71.9776 17.8912L73.2086 16.3239L76.6426 16.321L80.0766 16.3181L80.906 15.2645C81.3629 14.6866 81.747 14.1963 81.7587 14.1729C81.779 14.1379 80.9438 14.132 75.9383 14.132H70.0947L69.0849 15.4075ZM81.4363 16.2976C81.4422 16.2831 81.8263 15.7927 82.289 15.2032L83.133 14.135H90.3763C96.1646 14.1321 97.6139 14.1408 97.5906 14.1671C97.5828 14.1762 97.501 14.2801 97.3717 14.4441C97.2121 14.6466 96.9803 14.9407 96.7263 15.2615L95.8882 16.321H93.2778H90.6644L88.9358 18.5158C88.6579 18.8697 88.3036 19.3209 87.9088 19.8235C86.956 21.0366 85.7677 22.5496 84.85 23.7196C84.1284 24.638 83.3915 25.5771 82.8194 26.3063C82.3624 26.8887 82.0105 27.3372 81.8554 27.5342L81.2181 28.3456H78.8055C77.4814 28.3456 76.3959 28.3398 76.3959 28.3339C76.3959 28.3252 76.8441 27.7502 77.3912 27.0556C77.897 26.4134 78.5744 25.5468 78.9659 25.0459L79.0558 24.9309C79.4225 24.458 80.5051 23.0775 81.4596 21.8663C82.4141 20.6551 83.7819 18.9127 84.4978 17.9992L85.7987 16.3356L83.6131 16.3268C82.4083 16.3239 81.4305 16.3093 81.4363 16.2976Z" fill="#1C1C1C"/>
</svg>
