<svg width="17" height="16" viewBox="0 0 17 16" fill="none" xmlns="http://www.w3.org/2000/svg">
<path fill-rule="evenodd" clip-rule="evenodd" d="M3.83312 0.890625C2.48309 0.890625 1.38867 1.98504 1.38867 3.33507V9.55729C1.38867 10.9073 2.48309 12.0017 3.83312 12.0017H10.0553C11.4054 12.0017 12.4998 10.9073 12.4998 9.55729V3.33507C12.4998 1.98504 11.4054 0.890625 10.0553 0.890625H3.83312ZM2.72201 3.33507C2.72201 2.72142 3.21947 2.22396 3.83312 2.22396H10.0553C10.669 2.22396 11.1664 2.72142 11.1664 3.33507V9.55729C11.1664 10.1709 10.669 10.6684 10.0553 10.6684H3.83312C3.21947 10.6684 2.72201 10.1709 2.72201 9.55729V3.33507Z" fill="#1F2937"/>
<path d="M14.0831 4.179C13.7418 4.04073 13.3531 4.20528 13.2148 4.54652C13.0766 4.88776 13.2411 5.27648 13.5823 5.41475C13.9911 5.58037 14.2771 5.98005 14.2771 6.44576V12.668C14.2771 13.282 13.7801 13.7791 13.166 13.7791H6.94381C6.4788 13.7791 6.07835 13.4929 5.9128 13.0843C5.77453 12.7431 5.38581 12.5785 5.04457 12.7168C4.70333 12.855 4.53879 13.2438 4.67705 13.585C5.0395 14.4795 5.91727 15.1124 6.94381 15.1124H13.166C14.5164 15.1124 15.6105 14.0184 15.6105 12.668V6.44576C15.6105 5.41814 14.9774 4.54137 14.0831 4.179Z" fill="#1F2937"/>
</svg>
