<svg width="41" height="40" viewBox="0 0 41 40" fill="none" xmlns="http://www.w3.org/2000/svg">
<path d="M0.463867 20C0.463867 8.95431 9.41817 0 20.4639 0C31.5096 0 40.4639 8.95431 40.4639 20C40.4639 31.0457 31.5096 40 20.4639 40C9.41817 40 0.463867 31.0457 0.463867 20Z" fill="#F3F4F6"/>
<path d="M16.1305 20.0004C18.1556 20.0004 19.7972 18.3588 19.7972 16.3338C19.7972 14.3087 18.1556 12.6671 16.1305 12.6671C14.1055 12.6671 12.4639 14.3087 12.4639 16.3338C12.4639 18.3588 14.1055 20.0004 16.1305 20.0004Z" fill="#D1D5DB"/>
<path d="M24.4635 16.6671C26.4886 16.6671 28.1302 15.0255 28.1302 13.0004C28.1302 10.9754 26.4886 9.33374 24.4635 9.33374C22.4385 9.33374 20.7969 10.9754 20.7969 13.0004C20.7969 15.0255 22.4385 16.6671 24.4635 16.6671Z" fill="#D1D5DB"/>
<path d="M31.3921 22.7973C30.3108 19.928 27.5268 18 24.4641 18C22.5748 18 20.7948 18.7373 19.4521 19.9733C21.9241 20.9187 23.9655 22.8653 24.9308 25.4253C25.0801 25.82 25.1468 26.2293 25.1735 26.6387C26.7881 26.572 28.3855 26.292 29.9268 25.7773C30.5348 25.5747 31.0388 25.128 31.3148 24.552C31.5815 23.992 31.6095 23.368 31.3935 22.7973H31.3921Z" fill="#D1D5DB"/>
<path d="M23.0585 26.1311C21.9771 23.2617 19.1931 21.3337 16.1305 21.3337C13.0678 21.3337 10.2838 23.2617 9.20247 26.1311C8.98647 26.7031 9.01447 27.3257 9.28114 27.8857C9.5558 28.4617 10.0611 28.9084 10.6691 29.1111C12.4358 29.7004 14.2745 30.0004 16.1305 30.0004C17.9865 30.0004 19.8251 29.7004 21.5918 29.1111C22.1998 28.9084 22.7038 28.4617 22.9798 27.8857C23.2465 27.3257 23.2745 26.7017 23.0585 26.1311Z" fill="#D1D5DB"/>
</svg>
