<svg width="41" height="40" viewBox="0 0 41 40" fill="none" xmlns="http://www.w3.org/2000/svg">
<rect x="0.5" width="40" height="40" rx="20" fill="#F3F4F6"/>
<g clip-path="url(#clip0_1645_73)">
<path d="M20.4997 18.8143C23.4912 18.8143 25.9163 16.3892 25.9163 13.3976C25.9163 10.4061 23.4912 7.98096 20.4997 7.98096C17.5081 7.98096 15.083 10.4061 15.083 13.3976C15.083 16.3892 17.5081 18.8143 20.4997 18.8143Z" fill="#D1D5DB"/>
<path d="M30.3212 26.7178C28.3019 23.1905 24.5384 21 20.4997 21C16.4611 21 12.6954 23.1905 10.6782 26.7178C10.1387 27.6582 10.0174 28.7848 10.3446 29.8118C10.6696 30.8345 11.4192 31.6817 12.3964 32.1345C15.0852 33.3782 17.7914 34 20.4997 34C23.2081 34 25.9142 33.3782 28.6031 32.1345C29.5802 31.6817 30.3277 30.8345 30.6549 29.8118C30.9821 28.7848 30.8607 27.6582 30.3212 26.72V26.7178Z" fill="#D1D5DB"/>
</g>
<defs>
<clipPath id="clip0_1645_73">
<rect width="26" height="26" fill="white" transform="translate(7.5 8)"/>
</clipPath>
</defs>
</svg>
