<svg width="17" height="17" viewBox="0 0 17 17" fill="none" xmlns="http://www.w3.org/2000/svg">
<path d="M16.1049 1.27575C16.0442 1.22932 15.9802 1.18753 15.9132 1.15075L15.8549 1.10908C15.6843 1.01957 15.4972 0.965993 15.3051 0.951659C15.1131 0.937326 14.9203 0.962542 14.7383 1.02575L1.07153 5.90908C0.835547 5.99307 0.627111 6.13992 0.468498 6.33378C0.309886 6.52764 0.20726 6.76114 0.171664 7.00908C0.134379 7.25824 0.165035 7.51284 0.260369 7.74604C0.355702 7.97924 0.512097 8.1824 0.713249 8.33408L3.70499 10.5424V14.8424C3.70454 15.0992 3.77501 15.3511 3.90885 15.5702C4.04269 15.7894 4.2346 15.9672 4.46325 16.0841C4.66017 16.1817 4.87681 16.233 5.09659 16.2341C5.3959 16.2377 5.68831 16.1441 5.92992 15.9674L6.76326 15.3674C6.85209 15.303 6.92729 15.2217 6.98461 15.1281C7.04193 15.0345 7.08029 14.9306 7.09732 14.8222C7.11436 14.7138 7.10975 14.6031 7.0839 14.4964C7.05804 14.3898 7.01136 14.2893 6.94657 14.2007C6.88215 14.1119 6.80088 14.0367 6.70731 13.9794C6.61374 13.922 6.50972 13.8838 6.40132 13.8667C6.29292 13.8497 6.18223 13.8542 6.07559 13.8801C5.96896 13.906 5.86854 13.9526 5.77998 14.0174L5.39668 14.2924V11.7924L11.9632 16.6424C12.2038 16.8221 12.4963 16.9186 12.7966 16.9174C12.9736 16.9172 13.1491 16.8833 13.3133 16.8174C13.5295 16.7316 13.7197 16.5913 13.8657 16.4102C14.0117 16.2292 14.1086 16.0135 14.1467 15.7841L16.5883 2.60075C16.6349 2.35683 16.6146 2.10485 16.5295 1.87155C16.4444 1.63826 16.2976 1.43238 16.1049 1.27575ZM11.1049 4.09241L4.52164 9.09241L2.17158 7.30075L11.1049 4.09241ZM12.5632 15.0257L5.89656 10.1174L14.6883 3.45075L12.5632 15.0257Z" fill="#C7D2FE"/>
</svg>
