<svg width="16" height="16" viewBox="0 0 16 16" fill="none" xmlns="http://www.w3.org/2000/svg">
<path d="M15.121 0.880274C14.781 0.540274 14.281 0.420274 13.811 0.560274L0.891009 4.72027C0.401009 4.88027 0.0610091 5.29027 0.00100911 5.80027C-0.0589909 6.31027 0.191009 6.79027 0.631009 7.05027L5.88101 10.1103L8.94101 15.3503C9.17101 15.7503 9.59101 15.9903 10.051 15.9903C10.101 15.9903 10.151 15.9903 10.201 15.9903C10.711 15.9303 11.131 15.5903 11.291 15.1003L15.441 2.18027C15.591 1.72027 15.471 1.22027 15.121 0.880274ZM12.321 2.62027L6.31101 8.63027L1.81101 6.00027L12.321 2.62027ZM10.001 14.2003L7.37101 9.69027L13.381 3.68027L10.001 14.1903V14.2003Z" fill="white"/>
</svg>
