<svg width="16" height="18" viewBox="0 0 16 18" fill="none" xmlns="http://www.w3.org/2000/svg">
<path d="M6.33398 8.16667V13.1667M9.66732 8.16667V13.1667M1.33398 4.83333H14.6673M13.834 4.83333L13.1115 14.9517C13.0816 15.3722 12.8934 15.7657 12.5849 16.053C12.2764 16.3403 11.8705 16.5 11.449 16.5H4.55232C4.13077 16.5 3.72487 16.3403 3.41639 16.053C3.1079 15.7657 2.91975 15.3722 2.88982 14.9517L2.16732 4.83333H13.834ZM10.5007 4.83333V2.33333C10.5007 2.11232 10.4129 1.90036 10.2566 1.74408C10.1003 1.5878 9.88833 1.5 9.66732 1.5H6.33398C6.11297 1.5 5.90101 1.5878 5.74473 1.74408C5.58845 1.90036 5.50065 2.11232 5.50065 2.33333V4.83333H10.5007Z" stroke="#38318B" stroke-width="1.5" stroke-linecap="round" stroke-linejoin="round"/>
</svg>
