<svg width="17" height="4" viewBox="0 0 17 4" fill="none" xmlns="http://www.w3.org/2000/svg">
<path d="M2.11155 0.611328C1.34448 0.611328 0.722656 1.23315 0.722656 2.00022C0.722656 2.76728 1.34448 3.38911 2.11155 3.38911C2.87861 3.38911 3.50043 2.76728 3.50043 2.00022C3.50043 1.23315 2.87861 0.611328 2.11155 0.611328Z" fill="#1F2937"/>
<path d="M8.50043 0.611328C7.73337 0.611328 7.11154 1.23315 7.11154 2.00022C7.11154 2.76728 7.73337 3.38911 8.50043 3.38911C9.2675 3.38911 9.88932 2.76728 9.88932 2.00022C9.88932 1.23315 9.2675 0.611328 8.50043 0.611328Z" fill="#1F2937"/>
<path d="M14.8893 0.611328C14.1223 0.611328 13.5004 1.23315 13.5004 2.00022C13.5004 2.76728 14.1223 3.38911 14.8893 3.38911C15.6564 3.38911 16.2782 2.76728 16.2782 2.00022C16.2782 1.23315 15.6564 0.611328 14.8893 0.611328Z" fill="#1F2937"/>
</svg>
