<svg width="14" height="14" viewBox="0 0 14 14" fill="none" xmlns="http://www.w3.org/2000/svg">
<path d="M13.1445 2.03587C13.47 1.71043 13.47 1.1828 13.1445 0.857359C12.8191 0.531922 12.2915 0.531922 11.966 0.857359L6.99973 5.82366L2.03343 0.857359C1.70799 0.531922 1.18035 0.531922 0.854918 0.857359C0.529481 1.1828 0.529481 1.71043 0.854918 2.03587L5.82122 7.00217L0.854918 11.9685C0.529481 12.2939 0.529481 12.8215 0.854918 13.147C1.18035 13.4724 1.70799 13.4724 2.03343 13.147L6.99973 8.18068L11.966 13.147C12.2915 13.4724 12.8191 13.4724 13.1445 13.147C13.47 12.8215 13.47 12.2939 13.1445 11.9685L8.17824 7.00217L13.1445 2.03587Z" fill="#1F2937"/>
</svg>
